<?xml version="1.0" standalone="no"?>
<!DOCTYPE svg PUBLIC "-//W3C//DTD SVG 20010904//EN"
 "http://www.w3.org/TR/2001/REC-SVG-20010904/DTD/svg10.dtd">
<svg version="1.0" xmlns="http://www.w3.org/2000/svg"
 width="1018.000000pt" height="730.000000pt" viewBox="0 0 1018.000000 730.000000"
 preserveAspectRatio="xMidYMid meet">

<g transform="translate(0.000000,730.000000) scale(0.100000,-0.100000)"
fill="#000000" stroke="none">
<path d="M5517 7023 c14 -49 6 -282 -17 -498 -24 -227 -23 -343 5 -409 17 -41
16 -55 -8 -141 -16 -55 -10 -90 26 -163 18 -37 19 -47 9 -75 -28 -77 -9 -162
53 -236 24 -27 26 -36 19 -73 -16 -85 9 -160 79 -236 25 -26 47 -61 50 -79 17
-90 129 -197 272 -261 115 -51 142 -58 418 -113 27 -5 61 -9 75 -9 35 0 60
-16 47 -29 -6 -5 -66 -17 -135 -25 -217 -26 -404 -95 -503 -185 -68 -62 -75
-129 -22 -202 34 -45 102 -93 150 -105 19 -5 23 -14 27 -56 6 -61 31 -96 87
-125 59 -30 66 -38 80 -83 16 -54 48 -73 119 -73 134 2 365 113 552 267 131
107 300 292 406 443 16 24 33 41 38 40 11 -3 11 -4 51 -152 37 -134 56 -187
100 -272 68 -135 151 -192 229 -159 30 12 47 13 85 5 40 -8 54 -7 93 10 25 11
49 24 52 30 4 5 21 7 39 4 20 -3 54 3 90 17 97 37 109 96 45 230 -55 116 -146
205 -273 265 -67 31 -72 48 -12 38 23 -5 119 -8 212 -7 145 1 177 4 221 21 81
32 124 70 155 139 20 44 38 67 63 82 49 29 70 73 64 136 l-5 51 46 30 c57 37
78 88 60 144 -11 34 -11 36 24 65 20 17 44 51 53 75 15 37 16 51 5 89 -10 37
-9 48 3 61 24 27 58 102 77 171 41 140 127 726 110 743 -4 4 -31 -23 -59 -62
-67 -90 -169 -184 -296 -271 -110 -77 -222 -150 -230 -150 -4 0 -225 -135
-275 -169 -129 -87 -152 -103 -248 -184 -66 -55 -194 -196 -249 -274 -57 -81
-156 -274 -180 -349 -26 -83 -44 -73 -58 31 -48 365 -149 603 -367 862 -90
107 -184 190 -322 285 -62 43 -125 87 -142 99 -16 11 -100 66 -185 123 -357
235 -532 380 -722 602 -44 52 -82 94 -84 94 -2 0 -1 -12 3 -27z m968 -1875
c-20 -65 -18 -77 20 -115 36 -36 37 -38 24 -76 -18 -54 2 -83 85 -125 62 -30
91 -60 46 -48 -11 3 -30 9 -42 12 -50 14 -147 67 -161 87 -37 58 -38 117 -2
117 28 0 24 19 -9 39 -73 45 -61 130 18 131 25 0 27 -3 21 -22z m1517 -789
c50 -73 68 -140 47 -177 -14 -24 -21 -27 -67 -26 -31 1 -52 -3 -52 -9 0 -24
-34 -47 -71 -47 -53 0 -58 17 -10 36 22 8 42 22 45 30 3 8 19 14 38 14 42 0
78 34 78 74 0 33 -41 129 -59 140 -6 4 -11 12 -11 17 0 23 27 0 62 -52z"/>
<path d="M2088 4450 c-14 -4 -74 -8 -131 -7 -97 0 -108 -2 -151 -27 -37 -22
-50 -25 -61 -16 -15 12 -94 4 -200 -20 -27 -6 -97 -22 -155 -36 -58 -13 -136
-33 -175 -44 -38 -11 -90 -25 -115 -32 -25 -7 -61 -27 -82 -46 -27 -26 -47
-35 -77 -37 -29 -1 -54 -13 -91 -41 -27 -21 -50 -42 -50 -46 0 -4 -18 -8 -40
-8 -33 0 -48 -7 -84 -40 -24 -22 -51 -40 -61 -40 -37 0 -263 -153 -292 -197
-9 -14 -22 -48 -30 -76 -12 -47 -11 -54 11 -103 13 -29 35 -60 49 -69 24 -15
28 -15 66 5 39 19 41 23 41 64 0 36 8 54 40 97 22 30 40 59 40 65 0 7 14 16
32 19 18 4 54 28 83 56 97 95 157 139 189 139 16 0 37 7 46 15 26 23 198 95
228 95 15 0 77 13 137 29 136 36 329 74 372 72 18 0 35 3 38 9 4 6 12 6 24 -1
13 -9 25 -8 47 4 25 13 39 14 74 5 31 -8 63 -8 114 0 39 6 83 8 99 5 15 -3 33
0 40 6 10 7 32 8 77 0 35 -5 86 -9 114 -9 57 2 123 -14 176 -40 21 -11 46 -16
62 -13 20 4 30 1 34 -11 4 -10 18 -16 40 -16 24 0 37 -5 41 -17 3 -10 28 -41
54 -69 67 -72 81 -126 74 -275 -8 -161 -8 -161 -38 -191 -15 -15 -27 -36 -27
-47 0 -25 -79 -124 -145 -180 -28 -24 -82 -56 -119 -71 -38 -16 -85 -42 -104
-60 -28 -25 -41 -31 -63 -26 -17 3 -45 -2 -71 -14 -24 -11 -54 -20 -68 -20
-14 0 -58 -11 -98 -25 -41 -14 -90 -25 -110 -25 -21 0 -59 -6 -87 -13 -27 -8
-69 -11 -93 -9 -24 2 -48 -1 -57 -8 -9 -7 -20 -8 -32 -2 -10 5 -64 7 -121 5
l-103 -3 7 47 c4 29 16 58 30 73 12 14 35 52 49 85 14 33 35 78 47 100 36 67
47 88 65 130 10 22 37 58 61 81 62 60 71 105 36 187 -14 34 -30 78 -36 97 -5
19 -28 54 -51 78 -34 34 -48 42 -78 42 -32 0 -40 -5 -63 -41 -35 -53 -58 -117
-50 -142 7 -23 -6 -51 -108 -223 -43 -73 -78 -138 -78 -146 0 -8 -11 -25 -24
-37 -13 -13 -27 -35 -31 -49 -4 -15 -22 -53 -42 -85 -25 -41 -33 -65 -29 -81
5 -20 3 -23 -13 -19 -26 7 -65 -58 -57 -92 5 -20 2 -27 -17 -34 -27 -10 -87
-95 -87 -121 0 -10 -23 -61 -50 -115 -28 -54 -50 -106 -50 -117 0 -11 -7 -26
-15 -34 -13 -13 -13 -19 0 -50 13 -32 13 -35 -3 -40 -52 -16 -71 -36 -146
-164 -107 -184 -139 -259 -140 -336 -1 -51 3 -66 27 -97 15 -19 27 -40 27 -46
0 -6 14 -26 31 -46 54 -61 136 -66 204 -11 29 24 30 26 27 103 -2 66 1 84 20
113 49 79 108 204 108 230 0 15 7 34 16 41 19 15 59 102 69 149 4 19 24 49 47
71 38 36 40 41 34 78 -6 37 -4 40 24 50 22 7 36 22 50 57 11 25 41 71 67 101
l47 55 60 -5 c34 -3 86 -8 116 -11 30 -3 99 -8 153 -9 90 -4 99 -2 109 16 10
19 12 19 23 4 15 -21 65 -21 120 -2 31 11 49 12 82 3 36 -9 47 -8 68 6 19 13
37 15 69 11 54 -8 179 22 272 66 36 17 85 32 107 33 56 2 165 55 220 105 24
23 49 41 54 41 18 0 96 67 125 107 104 143 151 239 183 378 20 84 8 323 -18
370 -9 17 -24 44 -33 62 -9 17 -27 36 -40 42 -15 7 -24 19 -24 34 0 12 -13 38
-29 57 -17 19 -38 45 -48 58 -11 14 -34 25 -58 29 -22 4 -57 19 -77 34 -26 18
-57 29 -95 34 -32 3 -85 13 -118 22 -67 17 -411 27 -457 13z"/>
<path d="M9359 4267 c-24 -13 -51 -37 -59 -53 -8 -16 -26 -50 -41 -76 -15 -26
-38 -75 -50 -110 -12 -35 -28 -70 -36 -79 -7 -8 -13 -24 -13 -35 0 -11 -11
-35 -25 -54 -14 -19 -25 -38 -25 -43 0 -6 -11 -34 -25 -62 -31 -67 -126 -320
-171 -455 -52 -158 -144 -337 -212 -412 -31 -35 -94 -110 -138 -168 -84 -108
-178 -203 -229 -231 -17 -10 -95 -62 -175 -118 -80 -56 -148 -101 -152 -101
-17 0 -116 -50 -128 -65 -7 -9 -29 -15 -55 -15 l-42 0 5 58 c2 31 11 64 19 73
9 11 12 26 7 43 -4 16 -1 32 7 42 42 51 76 128 98 219 12 50 26 106 31 125 8
29 6 43 -13 80 -29 56 -104 110 -154 110 -37 0 -43 -4 -170 -112 -38 -32 -77
-58 -89 -58 -11 0 -31 -12 -45 -26 -13 -14 -44 -40 -69 -57 -25 -17 -65 -51
-90 -77 -26 -26 -59 -53 -75 -61 -27 -13 -31 -21 -38 -77 -11 -75 -4 -108 23
-117 25 -8 62 17 93 64 17 26 37 41 65 49 43 13 58 26 64 57 3 15 11 19 32 18
19 -1 42 8 67 27 21 17 44 28 52 24 9 -3 27 2 42 12 43 28 52 6 24 -63 -13
-32 -30 -69 -38 -82 -18 -28 -45 -101 -74 -196 -34 -115 -22 -302 23 -351 55
-58 115 -66 205 -24 98 44 197 95 201 102 3 4 38 33 77 63 40 30 106 84 147
119 41 36 82 65 91 65 20 1 87 51 134 100 70 72 81 83 121 116 23 19 44 35 48
35 13 0 5 -39 -13 -62 -27 -34 -71 -135 -71 -163 0 -12 -16 -42 -35 -66 -19
-24 -37 -55 -40 -69 -4 -18 -23 -34 -70 -59 -36 -18 -65 -37 -65 -41 0 -5 19
-24 42 -44 l43 -35 -23 -28 c-12 -15 -32 -48 -43 -73 -11 -25 -40 -85 -64
-135 -24 -49 -53 -124 -66 -165 -12 -41 -30 -84 -39 -95 -10 -11 -37 -76 -60
-145 -23 -69 -47 -130 -52 -137 -5 -6 -20 -53 -34 -104 -13 -51 -29 -97 -33
-103 -5 -6 -16 -34 -24 -62 -8 -27 -36 -103 -61 -167 -50 -126 -60 -203 -31
-241 8 -11 15 -35 15 -53 0 -25 10 -44 39 -75 l38 -42 44 37 c23 20 50 37 59
37 8 0 53 36 99 80 46 44 89 80 95 80 12 0 144 140 161 171 6 10 35 46 65 80
30 34 62 72 70 84 8 13 39 51 68 85 42 50 51 66 46 86 -5 21 1 34 33 67 47 50
93 138 93 177 0 19 8 33 26 45 20 13 24 22 20 43 -4 18 2 43 19 76 61 120 3
303 -147 460 -27 28 -48 53 -48 56 0 11 43 46 70 57 14 6 45 27 69 47 24 20
72 52 106 71 35 20 66 42 69 50 3 8 17 15 30 15 15 0 83 38 163 91 76 50 150
93 165 96 15 3 35 14 44 24 9 11 25 19 34 19 10 0 23 7 30 15 7 8 18 15 25 15
16 0 55 47 55 66 0 8 14 27 30 42 39 35 55 86 34 107 -26 26 -38 20 -176 -83
-31 -23 -64 -42 -73 -42 -22 0 -184 -86 -292 -156 -42 -27 -53 -40 -53 -60 0
-24 -2 -26 -34 -20 -24 5 -37 2 -46 -9 -7 -8 -17 -15 -22 -15 -5 0 -28 -15
-51 -34 -26 -21 -56 -35 -79 -38 -36 -4 -38 -2 -38 25 0 31 21 77 44 96 9 8
23 36 31 64 8 28 22 61 31 75 10 15 14 35 10 53 -4 23 0 32 22 48 15 11 38 46
51 78 13 32 48 108 78 170 29 62 53 119 53 127 0 9 17 34 38 55 21 22 44 58
51 80 8 27 32 61 70 98 36 37 63 73 71 98 7 22 22 54 34 70 43 59 78 127 72
141 -3 8 8 35 24 61 31 48 38 73 20 73 -22 0 -7 36 23 55 30 19 33 25 56 153
23 122 24 139 12 215 -7 45 -17 96 -22 112 -9 32 -61 95 -77 95 -5 0 -29 -10
-53 -23z m-753 -2423 c28 -19 91 -148 101 -206 4 -28 0 -53 -15 -86 -11 -26
-30 -82 -43 -126 -14 -46 -43 -110 -71 -154 -27 -43 -46 -83 -43 -93 3 -9 -7
-37 -22 -63 -68 -115 -94 -155 -130 -200 -13 -15 -30 -44 -38 -62 -8 -19 -19
-34 -25 -34 -7 0 -24 -12 -40 -27 -34 -34 -110 -109 -128 -126 -8 -6 -27 -25
-43 -42 -25 -25 -29 -27 -29 -10 0 18 31 127 55 195 7 19 24 69 38 110 32 96
88 228 109 260 21 30 50 150 46 187 -2 21 2 28 21 32 34 9 122 214 114 267 -5
30 -2 40 21 60 19 19 26 34 26 64 0 29 6 43 22 54 28 20 43 20 74 0z"/>
<path d="M7233 4029 c-38 -33 -80 -81 -94 -106 -15 -25 -42 -61 -61 -82 -19
-20 -47 -57 -62 -83 -19 -35 -33 -48 -49 -48 -12 0 -58 -14 -101 -31 -48 -19
-90 -29 -105 -26 -15 3 -35 -1 -46 -9 -12 -9 -30 -12 -47 -9 -17 4 -51 -1 -85
-13 -32 -11 -80 -23 -108 -27 -27 -4 -62 -14 -77 -21 -15 -8 -40 -14 -55 -14
-35 0 -215 -48 -227 -60 -6 -6 -27 -10 -47 -10 -20 0 -55 -6 -77 -14 -48 -17
-60 -10 -28 15 17 13 27 37 36 83 13 68 4 103 -38 151 -50 56 -55 58 -119 39
-75 -22 -103 -52 -103 -107 1 -80 16 -119 64 -163 l45 -42 -59 -21 c-71 -26
-114 -60 -140 -112 -26 -50 -25 -95 3 -143 35 -62 48 -65 99 -25 23 20 49 39
56 43 22 13 226 65 234 60 5 -3 30 1 56 10 26 8 74 20 107 26 33 7 98 25 145
40 98 33 132 39 217 41 52 1 66 6 85 26 18 20 29 23 55 18 21 -4 43 0 62 10
17 8 35 15 41 15 22 0 8 -53 -42 -150 -56 -110 -158 -240 -276 -352 -39 -36
-73 -75 -76 -86 -4 -10 -27 -33 -51 -51 -25 -18 -45 -36 -45 -41 0 -19 -197
-206 -247 -235 -29 -16 -115 -73 -190 -125 -76 -53 -167 -109 -203 -124 -36
-16 -73 -36 -84 -45 -10 -9 -37 -17 -62 -17 -39 -1 -42 0 -34 17 6 10 10 38
10 63 0 25 5 48 11 52 6 3 9 20 6 37 -3 24 4 43 29 78 45 64 56 94 89 232 24
101 26 121 15 147 -17 41 -102 116 -139 123 -48 10 -63 1 -198 -115 -37 -32
-75 -58 -85 -58 -10 0 -35 -15 -55 -34 -21 -18 -63 -49 -93 -68 -30 -20 -64
-45 -74 -57 -11 -12 -57 -42 -103 -67 -45 -25 -87 -54 -93 -64 -6 -11 -48 -45
-95 -75 -46 -31 -87 -60 -90 -66 -4 -5 -29 -21 -57 -35 -57 -29 -78 -22 -57
17 15 29 26 85 39 199 7 67 6 96 -5 134 -8 27 -15 63 -15 80 0 46 -47 213 -80
283 -23 50 -36 66 -69 82 -93 48 -141 12 -186 -139 -9 -30 -27 -68 -39 -85
-12 -16 -34 -50 -48 -75 -50 -86 -320 -324 -400 -352 -29 -10 -58 -68 -58
-116 0 -37 26 -72 54 -72 38 0 362 253 454 354 104 114 164 168 175 157 16
-16 22 -202 8 -229 -8 -15 -8 -28 1 -47 11 -23 9 -29 -14 -48 -18 -15 -29 -36
-33 -65 -4 -27 -21 -60 -45 -91 -21 -26 -50 -71 -64 -98 -14 -28 -33 -53 -43
-56 -10 -4 -34 -16 -53 -27 -42 -25 -107 -20 -151 12 l-28 21 -81 -23 c-68
-19 -86 -29 -108 -58 -15 -19 -35 -42 -44 -51 -25 -22 -22 -42 10 -84 15 -20
38 -52 52 -71 39 -53 81 -76 157 -87 68 -10 68 -10 146 31 43 22 88 40 100 41
12 0 51 18 87 39 36 22 90 51 120 66 30 14 60 34 67 44 7 10 30 21 50 25 21 3
58 19 83 36 25 16 57 37 72 47 15 9 32 27 37 39 6 13 17 23 25 23 14 0 87 57
142 110 12 11 28 20 36 20 8 0 23 9 34 21 10 12 36 30 56 40 20 10 48 34 62
52 14 19 48 46 76 61 29 16 57 40 66 58 12 23 20 29 36 24 14 -3 34 5 59 25
21 17 47 29 56 28 10 -1 30 4 46 11 42 20 54 2 29 -46 -40 -79 -72 -151 -72
-165 0 -8 -6 -24 -14 -35 -8 -11 -24 -58 -36 -105 -17 -66 -21 -99 -16 -154 4
-38 8 -88 10 -110 4 -51 20 -76 70 -109 35 -23 48 -26 86 -20 46 7 58 12 189
78 74 38 171 108 246 176 57 53 150 120 165 120 7 0 32 16 56 35 23 19 46 35
51 35 11 0 63 49 63 60 0 5 8 11 18 14 10 3 26 19 35 36 10 16 25 30 33 30 8
0 23 13 32 30 9 16 26 31 38 34 12 3 33 22 48 41 15 19 34 35 42 35 8 0 22 13
32 30 19 31 144 150 158 150 4 0 3 -5 -4 -12 -7 -7 -12 -26 -12 -43 0 -17 -10
-64 -21 -105 -32 -112 -36 -402 -8 -515 41 -162 99 -245 171 -245 63 0 97 65
98 186 0 76 -17 126 -67 195 l-38 53 1 122 c1 70 7 130 13 143 11 20 17 58 37
216 3 28 14 68 24 90 9 22 23 56 29 76 15 45 103 175 138 202 55 43 124 120
144 160 37 72 109 176 132 191 12 8 72 24 132 36 61 11 132 27 159 35 70 21
96 19 127 -11 25 -24 31 -26 57 -15 37 15 131 128 171 205 36 68 37 77 11 101
-18 16 -26 17 -92 6 -40 -7 -77 -16 -82 -22 -6 -5 -25 -9 -42 -9 -18 0 -68
-11 -111 -25 -44 -13 -94 -25 -113 -25 -19 0 -48 -1 -65 -3 l-30 -2 3 54 c2
30 7 63 11 75 10 26 -21 141 -45 167 -27 30 -50 23 -121 -42z"/>
<path d="M8112 3736 c-69 -18 -85 -46 -80 -134 6 -81 21 -111 79 -150 38 -26
83 -25 126 3 26 17 35 35 52 108 10 43 9 52 -14 96 -28 55 -67 91 -99 90 -11
-1 -41 -6 -64 -13z"/>
<path d="M3172 3019 c-23 -11 -83 -29 -133 -39 -96 -21 -238 -85 -307 -139
-20 -16 -58 -36 -84 -46 -26 -10 -55 -26 -65 -37 -10 -11 -41 -35 -70 -54 -29
-18 -60 -45 -69 -59 -9 -14 -34 -35 -55 -46 -57 -29 -89 -89 -82 -157 6 -56
23 -75 58 -62 11 4 27 20 36 36 8 16 22 29 31 29 8 0 34 17 58 38 24 20 47 37
52 37 12 0 10 -32 -8 -86 -20 -63 -34 -150 -41 -243 -4 -68 -2 -78 27 -136 25
-49 51 -79 116 -134 46 -39 90 -71 98 -71 7 0 19 -7 27 -16 22 -26 147 -14
254 26 50 18 102 41 117 51 14 11 35 19 45 19 11 0 34 16 53 35 19 19 43 35
53 35 28 0 154 106 178 149 37 67 81 136 101 157 12 14 21 42 25 78 3 31 10
59 14 62 5 3 9 52 9 108 0 96 -2 107 -31 163 -18 35 -41 65 -55 72 -28 12 -29
20 -9 47 34 45 -2 106 -76 131 -19 7 -71 26 -117 42 -96 36 -94 36 -150 10z
m169 -240 c-48 -46 -51 -52 -51 -98 0 -45 4 -53 46 -95 45 -46 46 -48 39 -94
-9 -59 -75 -194 -119 -243 -19 -20 -39 -46 -44 -56 -6 -11 -27 -28 -46 -38
-20 -11 -43 -34 -51 -52 -9 -18 -23 -33 -31 -33 -8 0 -27 -13 -41 -30 -13 -16
-33 -30 -42 -30 -9 0 -32 -11 -51 -25 -43 -31 -84 -39 -164 -30 l-64 6 -16 63
c-11 44 -13 77 -7 113 6 37 4 58 -7 78 -13 25 -12 29 12 54 14 15 26 34 26 42
1 40 63 156 117 215 32 36 63 74 68 84 20 34 37 50 54 50 10 0 28 11 41 25 13
14 31 25 39 25 9 0 28 14 43 32 24 30 28 32 52 19 22 -12 32 -12 73 4 26 10
72 31 102 46 29 16 58 26 63 23 5 -4 -13 -28 -41 -55z"/>
</g>
</svg>
